<svg xmlns="http://www.w3.org/2000/svg" width="512" height="512" viewBox="0 0 512 512">
  <defs>
    <linearGradient id="bg" x1="0%" y1="0%" x2="100%" y2="100%">
      <stop offset="0%" style="stop-color:#1a0a14"/>
      <stop offset="100%" style="stop-color:#0a0a12"/>
    </linearGradient>
    <linearGradient id="heart" x1="0%" y1="0%" x2="100%" y2="100%">
      <stop offset="0%" style="stop-color:#ec4899"/>
      <stop offset="100%" style="stop-color:#e11d48"/>
    </linearGradient>
    <linearGradient id="glow" x1="0%" y1="0%" x2="100%" y2="100%">
      <stop offset="0%" style="stop-color:#ec4899;stop-opacity:0.3"/>
      <stop offset="100%" style="stop-color:#e11d48;stop-opacity:0"/>
    </linearGradient>
    <filter id="shadow">
      <feDropShadow dx="0" dy="0" stdDeviation="20" flood-color="#ec4899" flood-opacity="0.4"/>
    </filter>
  </defs>
  <rect width="512" height="512" rx="96" fill="url(#bg)"/>
  <circle cx="256" cy="256" r="180" fill="url(#glow)"/>
  <path d="M256 340 C256 340 140 260 140 200 C140 160 170 130 210 130 C235 130 250 145 256 160 C262 145 277 130 302 130 C342 130 372 160 372 200 C372 260 256 340 256 340Z" fill="url(#heart)" filter="url(#shadow)"/>
  <path d="M220 210 L240 230 L290 180" stroke="white" stroke-width="12" fill="none" stroke-linecap="round" stroke-linejoin="round" opacity="0.9"/>
</svg>
